<svg width="48" height="48" viewBox="0 0 48 48" fill="none" xmlns="http://www.w3.org/2000/svg">
<path d="M21.3613 29.5836C19.8893 27.3263 19.0318 24.6315 19.0318 21.7346C19.0318 16.7182 21.6027 12.3038 25.4967 9.72974C17.9596 10.1812 11.9869 16.4329 11.9869 24.0829C11.9869 26.5816 12.625 28.9331 13.7458 30.9804C16.0925 30.6559 18.6431 30.1887 21.3597 29.5836H21.3613Z" fill="white"/>
<path d="M23.545 32.1969C20.8299 32.8365 18.1681 33.3663 15.7257 33.7551C18.3562 36.6474 22.1498 38.4642 26.3683 38.4642C29.2935 38.4642 32.0148 37.5879 34.2863 36.0877C33.9979 36.105 33.7063 36.1159 33.4132 36.1159C29.5929 36.1159 26.1206 34.6267 23.5466 32.1953L23.545 32.1969Z" fill="white"/>
<path d="M38.3872 23.6721C39.6841 23.6721 40.7355 22.6208 40.7355 21.3238C40.7355 20.0269 39.6841 18.9756 38.3872 18.9756C37.0902 18.9756 36.0389 20.0269 36.0389 21.3238C36.0389 22.6208 37.0902 23.6721 38.3872 23.6721Z" fill="white"/>
<path d="M44.6107 21.9713C44.4508 21.3348 43.8943 20.6529 41.4049 20.5024C41.477 20.7642 41.5177 21.0385 41.5177 21.3238C41.5177 21.548 41.4927 21.7659 41.4488 21.976C42.5884 22.0575 43.0164 22.2534 43.1559 22.3412C42.6402 23.4542 36.3038 26.6945 24.7395 29.5899C24.1313 29.742 23.5371 29.8862 22.9524 30.0226C19.0851 30.9333 15.768 31.5196 13.0749 31.8614C8.44411 32.4492 5.65374 32.3176 5.07686 31.8724C5.28849 31.4569 6.70562 30.2311 11.3583 28.4001C11.4696 28.3562 11.5307 28.2355 11.4994 28.121C11.4132 27.8028 11.3364 27.4815 11.2705 27.1554C11.2407 27.0127 11.0902 26.9296 10.9539 26.9829C3.07971 30.0555 3.47318 31.6341 3.62367 32.2345C3.80552 32.9587 4.50468 33.7268 7.89857 33.7268C8.70119 33.7268 9.65274 33.6845 10.7846 33.5873C11.78 33.5027 12.8491 33.3804 13.9747 33.2252C17.019 32.8035 20.4834 32.1326 24.0717 31.2657C24.4119 31.1826 24.7552 31.0995 25.0969 31.0133C30.3829 29.6902 35.2959 28.1007 38.9327 26.5393C44.3928 24.1942 44.8348 22.8664 44.6107 21.9728V21.9713Z" fill="white"/>
</svg>
