<svg xmlns="http://www.w3.org/2000/svg" version="1.1" xmlns:xlink="http://www.w3.org/1999/xlink" xmlns:svgjs="http://svgjs.com/svgjs" width="148" height="148"><svg width="148" height="148" viewBox="0 0 148 148" fill="none" xmlns="http://www.w3.org/2000/svg">
<path d="M65.864 91.2162C61.3254 84.256 58.6814 75.9472 58.6814 67.0149C58.6814 51.5477 66.6084 37.9366 78.6148 30C55.3753 31.392 36.9597 50.668 36.9597 74.2555C36.9597 81.9601 38.9269 89.2103 42.3829 95.5228C49.6186 94.5223 57.4827 93.0819 65.8592 91.2162H65.864Z" fill="#F9C569"></path>
<path d="M72.597 99.2736C64.2254 101.246 56.0181 102.879 48.4875 104.078C56.5982 112.996 68.2952 118.598 81.3021 118.598C90.3214 118.598 98.7124 115.896 105.716 111.27C104.827 111.324 103.928 111.357 103.024 111.357C91.2446 111.357 80.5384 106.766 72.6018 99.2688L72.597 99.2736Z" fill="#F9C569"></path>
<path d="M118.36 72.9891C122.359 72.9891 125.601 69.7474 125.601 65.7485C125.601 61.7497 122.359 58.5079 118.36 58.5079C114.362 58.5079 111.12 61.7497 111.12 65.7485C111.12 69.7474 114.362 72.9891 118.36 72.9891Z" fill="#1B2038"></path>
<path d="M137.55 67.7448C137.057 65.7824 135.341 63.6798 127.665 63.2158C127.887 64.023 128.013 64.8688 128.013 65.7485C128.013 66.4397 127.936 67.1116 127.8 67.7593C131.314 68.0106 132.634 68.6148 133.064 68.8855C131.474 72.3172 111.937 82.3081 76.2802 91.2355C74.4048 91.7044 72.5729 92.1491 70.77 92.5696C58.8458 95.3778 48.6181 97.1856 40.3141 98.2393C26.036 100.052 17.4324 99.6458 15.6537 98.2731C16.3062 96.9922 20.6757 93.2124 35.0215 87.5669C35.3646 87.4316 35.5531 87.0594 35.4565 86.7066C35.1906 85.7254 34.9538 84.7345 34.7508 83.7291C34.6589 83.2893 34.1949 83.0331 33.7744 83.1974C9.49578 92.6711 10.709 97.5384 11.173 99.3896C11.7337 101.623 13.8894 103.991 24.3539 103.991C26.8287 103.991 29.7626 103.861 33.2524 103.561C36.3217 103.3 39.6181 102.923 43.0886 102.444C52.4752 101.144 63.1572 99.0755 74.2211 96.4025C75.27 96.1464 76.3285 95.8902 77.3822 95.6244C93.6807 91.5449 108.829 86.6437 120.043 81.8296C136.878 74.5987 138.241 70.5047 137.55 67.7496V67.7448Z" fill="#1B2038"></path>
</svg><style>@media (prefers-color-scheme: light) { :root { filter: none; } }
@media (prefers-color-scheme: dark) { :root { filter: contrast(0.8333333333333334) brightness(1.7); } }
</style></svg>