<svg width="54" height="54" viewBox="0 0 54 54" fill="none" xmlns="http://www.w3.org/2000/svg">
<path d="M40.5 18V13.5C40.5 12.3065 40.0259 11.1619 39.182 10.318C38.3381 9.47411 37.1935 9 36 9H9C7.80653 9 6.66193 9.47411 5.81802 10.318C4.97411 11.1619 4.5 12.3065 4.5 13.5V29.25C4.5 30.4435 4.97411 31.5881 5.81802 32.432C6.66193 33.2759 7.80653 33.75 9 33.75H27M22.5 42.75V33.84V40.9275M15.75 42.75H27" stroke="url(#paint0_linear_65_23)" stroke-width="4.5" stroke-linecap="round" stroke-linejoin="round"/>
<path d="M45 27H40.5C38.0147 27 36 29.0147 36 31.5V45C36 47.4853 38.0147 49.5 40.5 49.5H45C47.4853 49.5 49.5 47.4853 49.5 45V31.5C49.5 29.0147 47.4853 27 45 27Z" stroke="url(#paint1_linear_65_23)" stroke-width="4.5" stroke-linecap="round" stroke-linejoin="round"/>
<defs>
<linearGradient id="paint0_linear_65_23" x1="25.1888" y1="19.0862" x2="25.1888" y2="36.9972" gradientUnits="userSpaceOnUse">
<stop offset="0.05" stop-color="white"/>
<stop offset="1" stop-color="#999999"/>
</linearGradient>
<linearGradient id="paint1_linear_65_23" x1="43.7583" y1="33.7241" x2="43.7583" y2="45.6648" gradientUnits="userSpaceOnUse">
<stop offset="0.05" stop-color="white"/>
<stop offset="1" stop-color="#999999"/>
</linearGradient>
</defs>
</svg>
