<svg width="125" height="58" viewBox="0 0 125 58" fill="none" xmlns="http://www.w3.org/2000/svg">
<path d="M19.4865 19.7868L19.9692 17.0298C20.0713 16.445 20.5726 16.0179 21.1667 16.0179H45.1442C45.8961 16.0179 46.4716 16.6956 46.3417 17.4382L45.859 20.1952C45.7569 20.78 45.2556 21.207 44.6615 21.207H20.684C19.932 21.2163 19.3565 20.5294 19.4865 19.7868Z" fill="#3C405B"/>
<path d="M43.0556 38.2317L42.5543 40.9887C42.4522 41.5643 41.9416 41.9913 41.3568 41.9913H17.0079C16.2468 41.9913 15.6805 41.3044 15.8105 40.5617L17.3328 32.0494C17.435 31.4646 17.9455 31.0468 18.5303 31.0468H23.1439C23.738 31.0468 24.2393 30.6198 24.3414 30.0443L24.8334 27.2316C24.9355 26.6468 25.4368 26.229 26.0309 26.229H36.3162C37.0681 26.229 37.6437 26.916 37.5137 27.6586L37.096 30.0443C36.9939 30.6291 36.4926 31.0468 35.8985 31.0468H25.1861C24.592 31.0468 24.0907 31.4738 23.9886 32.0494L23.3945 35.3726C23.2646 36.1153 23.8308 36.8022 24.592 36.8022H41.8488C42.61 36.8022 43.1855 37.4891 43.0556 38.2317Z" fill="#3C405B"/>
<path d="M56.757 36.8858C54.7241 36.8858 53.1553 36.2731 52.0413 35.0385C50.9274 33.8039 50.3704 32.1701 50.3704 30.1371C50.3704 28.4755 50.6953 26.9531 51.3358 25.5886C51.9856 24.2147 52.8953 23.1286 54.0743 22.3303C55.2532 21.5227 56.5806 21.1235 58.0566 21.1235C59.9689 21.1235 61.4912 21.6991 62.6145 22.8594C63.7377 24.0198 64.3039 25.5886 64.3039 27.5565C64.3039 28.3827 64.2482 29.1068 64.1461 29.738H53.3781C53.3688 29.8494 53.3595 30.0165 53.3595 30.2393C53.3595 31.4646 53.6751 32.4393 54.2971 33.1633C54.9283 33.8874 55.7637 34.2494 56.822 34.2494C57.741 34.2494 58.53 34.0359 59.1891 33.5996C59.8482 33.1726 60.3309 32.5785 60.6372 31.8359H63.6077C63.2086 33.3119 62.3731 34.5186 61.1199 35.4655C59.876 36.4123 58.4186 36.8858 56.757 36.8858ZM53.7401 27.4823H61.2685C61.2777 27.408 61.287 27.2688 61.287 27.0645C61.287 26.1177 61.0085 25.3286 60.4516 24.6881C59.8946 24.0476 59.0684 23.732 57.9823 23.732C56.9427 23.732 56.0422 24.0755 55.2996 24.7717C54.5384 25.4679 54.0279 26.3683 53.7401 27.4823Z" fill="#3C405B"/>
<path d="M66.1141 21.402H69.1774L70.5884 33.2376H70.6441L76.8915 21.402H80.2426L71.7209 36.5702H68.3049L66.1141 21.402Z" fill="#3C405B"/>
<path d="M95.1044 21.4206L91.9018 36.5702H88.9591L89.4325 34.3609H89.3768C88.9777 35.0478 88.3279 35.6419 87.4275 36.1246C86.527 36.6166 85.5338 36.8579 84.4384 36.8579C83.0181 36.8579 81.8949 36.4588 81.0502 35.6512C80.2054 34.8436 79.7877 33.8224 79.7877 32.5785C79.7877 31.8731 79.862 31.1676 80.0012 30.4806L81.8949 21.4206H84.9861L83.1574 29.9979C83.046 30.5456 82.981 31.0376 82.981 31.4739C82.981 33.2098 83.9278 34.0731 85.8122 34.0731C86.8983 34.0731 87.8266 33.7389 88.5971 33.0613C89.3769 32.3836 89.8781 31.5017 90.1195 30.3971L92.0317 21.4206H95.1044Z" fill="#3C405B"/>
<path d="M96.9702 25.7835C96.9702 24.4097 97.5086 23.2957 98.5947 22.4324C99.6808 21.5691 101.092 21.1328 102.828 21.1328C104.526 21.1328 105.91 21.5691 106.977 22.451C108.054 23.3329 108.592 24.4746 108.611 25.8671H105.752C105.696 25.1987 105.39 24.6417 104.842 24.2147C104.294 23.7877 103.607 23.5649 102.8 23.5649C101.937 23.5649 101.25 23.7413 100.739 24.1033C100.228 24.4654 99.9686 24.9202 99.9686 25.4865C99.9686 25.9599 100.145 26.3405 100.488 26.6283C100.841 26.9253 101.463 27.2038 102.364 27.4823L103.756 27.9279C105.13 28.3827 106.114 28.9211 106.708 29.5524C107.302 30.1836 107.608 31.0005 107.608 31.9937C107.608 33.414 107.033 34.5744 105.891 35.4841C104.749 36.3938 103.283 36.8487 101.5 36.8487C99.6529 36.8487 98.1584 36.4031 97.0073 35.5026C95.8656 34.6022 95.2622 33.4419 95.2158 32.0123H98.2327C98.3348 32.7271 98.6875 33.3119 99.2816 33.7389C99.8757 34.1752 100.655 34.3887 101.621 34.3887C102.456 34.3887 103.143 34.1845 103.7 33.776C104.248 33.3676 104.526 32.8663 104.526 32.2629C104.526 31.8359 104.369 31.4925 104.044 31.2325C103.719 30.9819 103.115 30.7127 102.215 30.4342L100.906 30.0165C99.523 29.5802 98.5297 29.0139 97.9078 28.3456C97.2858 27.6865 96.9702 26.8325 96.9702 25.7835Z" fill="#3C405B"/>
</svg>
