<svg width="146" height="42" viewBox="0 0 146 42" fill="none" xmlns="http://www.w3.org/2000/svg">
<path d="M42.296 29.3283V2.28462H52.962C56.0328 2.28462 58.4225 3.04186 60.1234 4.55253C61.8243 6.0632 62.6767 8.1789 62.6767 10.8958C62.6767 13.6127 61.8129 15.9111 60.0854 17.4865C58.3578 19.0618 55.9833 19.8495 52.962 19.8495H46.984V29.3321H42.2998L42.296 29.3283ZM46.9802 15.8084H52.2733C54.0503 15.8084 55.4354 15.3822 56.4247 14.5336C57.4141 13.6812 57.9088 12.4712 57.9088 10.8958C57.9088 7.87448 56.0062 6.36381 52.1971 6.36381H46.9802V15.8084Z" fill="#3C405B"/>
<path d="M65.4545 29.3283V10.8539H69.6441V17.4826L68.845 16.8738C69.2255 15.3745 69.7278 14.1835 70.348 13.2931C70.9683 12.4065 71.756 11.7558 72.7111 11.3486C73.6624 10.9415 74.8382 10.7398 76.2347 10.7398C76.463 10.7398 76.6837 10.7474 76.9006 10.7588C77.1175 10.7702 77.3382 10.8045 77.5665 10.8539V15.0815C77.2126 15.0321 76.893 14.9978 76.6152 14.9864C76.3336 14.975 76.0559 14.9674 75.7781 14.9674C73.8488 14.9674 72.38 15.4621 71.3792 16.4514C70.3747 17.4408 69.8762 18.8906 69.8762 20.7932V29.3245H65.4583L65.4545 29.3283Z" fill="#3C405B"/>
<path d="M86.1359 29.8229C84.2333 29.8229 82.6427 29.3283 81.3756 28.3389C80.1046 27.3496 79.473 25.9759 79.473 24.2255C79.473 23.259 79.6442 22.4484 79.9867 21.7863C80.3291 21.128 80.7934 20.5801 81.3756 20.1501C82.1366 19.5413 83.0765 19.0846 84.1952 18.7802C85.314 18.4758 86.5316 18.2589 87.852 18.1333C88.7386 18.0572 89.4845 17.9621 90.0819 17.8479C90.6793 17.7338 91.1359 17.5511 91.4518 17.2962C91.7676 17.0412 91.9274 16.6607 91.9274 16.1546C91.9274 15.3936 91.5773 14.8266 90.881 14.4613C90.1808 14.0922 89.1877 13.9095 87.8901 13.9095C86.6953 13.9095 85.7059 14.0808 84.9182 14.4232C84.1305 14.7657 83.3695 15.3822 82.6313 16.2688L79.4691 13.9438C80.4851 12.5967 81.6838 11.6568 83.0689 11.1241C84.454 10.5914 86.0217 10.325 87.7721 10.325C90.4396 10.325 92.521 10.8654 94.0203 11.9422C95.5195 13.0229 96.2692 14.5907 96.2692 16.6455V29.3283H92.346V24.4918L93.4115 24.6821C93.107 25.7742 92.6124 26.7065 91.9274 27.4827C91.2425 28.259 90.4091 28.8412 89.4312 29.2331C88.4533 29.6251 87.3535 29.8229 86.1359 29.8229ZM86.9007 26.2803C87.8406 26.2803 88.7044 26.0976 89.4921 25.7285C90.2798 25.3594 90.9076 24.8267 91.3757 24.1303C91.8437 23.434 92.0796 22.574 92.0796 21.558V20.074C91.7257 20.4279 91.3034 20.679 90.8239 20.816C90.3406 20.9568 89.6177 21.0786 88.6511 21.1775C87.7873 21.2802 87.072 21.3868 86.4974 21.5009C85.9228 21.6151 85.4129 21.813 84.9563 22.0907C84.6519 22.2924 84.4045 22.555 84.2143 22.8708C84.024 23.1867 83.9289 23.5748 83.9289 24.0314C83.9289 24.7164 84.1876 25.2643 84.7089 25.6676C85.2302 26.0748 85.9608 26.2765 86.9007 26.2765V26.2803Z" fill="#3C405B"/>
<path d="M118.655 10.8578L111.76 20.0359L109.896 21.4439L104.07 29.3283H98.929L106.471 19.2749L108.606 17.905L113.442 10.8578H118.659H118.655ZM104.675 10.8578L109.816 17.905L111.566 19.1607L119.603 29.3283H114.31L108.56 21.4058L106.734 20.112L99.4199 10.8578H104.675Z" fill="#3C405B"/>
<path d="M124.043 7.65759C123.282 7.65759 122.647 7.41785 122.137 6.93459C121.627 6.45133 121.376 5.81586 121.376 5.03198C121.376 4.1682 121.631 3.50229 122.137 3.03044C122.643 2.5624 123.279 2.32648 124.043 2.32648C124.808 2.32648 125.44 2.5624 125.946 3.03044C126.452 3.50229 126.707 4.1682 126.707 5.03198C126.707 5.81966 126.452 6.45513 125.946 6.93459C125.436 7.41785 124.804 7.65759 124.043 7.65759ZM121.795 29.3283V10.854H126.25V29.3283H121.795Z" fill="#3C405B"/>
<path d="M137.94 29.8991C136.266 29.8991 134.709 29.6441 133.275 29.138C131.84 28.6319 130.626 27.9698 129.637 27.1593L132 23.9591C132.761 24.6441 133.633 25.2034 134.611 25.6334C135.588 26.0672 136.673 26.2803 137.868 26.2803C138.987 26.2803 139.824 26.1091 140.383 25.7666C140.942 25.4241 141.22 24.8952 141.22 24.1874C141.22 23.6281 141.041 23.1981 140.687 22.8937C140.33 22.5892 139.843 22.3495 139.222 22.1707C138.598 21.9918 137.872 21.8168 137.031 21.6379C136.167 21.4857 135.349 21.2764 134.572 21.0101C133.796 20.7437 133.127 20.3936 132.556 19.9636C131.985 19.5337 131.54 19.0047 131.224 18.3845C130.908 17.7642 130.748 17.0184 130.748 16.1546C130.748 14.4042 131.433 12.9925 132.807 11.927C134.177 10.8616 136.03 10.3288 138.366 10.3288C139.866 10.3288 141.247 10.5381 142.518 10.9567C143.789 11.3753 144.881 11.9423 145.794 12.65L143.431 15.8122C142.769 15.23 142.046 14.7657 141.258 14.4233C140.471 14.0808 139.531 13.9096 138.439 13.9096C137.346 13.9096 136.604 14.0694 136.057 14.3852C135.509 14.701 135.238 15.1919 135.238 15.8502C135.238 16.3829 135.398 16.7977 135.714 17.0869C136.03 17.3799 136.494 17.6006 137.103 17.7528C137.712 17.905 138.412 18.0572 139.196 18.2094C140.364 18.4378 141.437 18.7574 142.415 19.1607C143.393 19.5679 144.181 20.1463 144.778 20.8921C145.375 21.6418 145.672 22.6615 145.672 23.9591C145.672 25.8123 144.961 27.2659 143.541 28.3199C142.118 29.3739 140.254 29.8991 137.944 29.8991H137.94Z" fill="#3C405B"/>
<path d="M42.6956 36.3413C42.9619 35.858 43.3348 35.4813 43.8105 35.2111C44.2862 34.941 44.8303 34.8078 45.4353 34.8078C46.1773 34.8078 46.809 35.0019 47.3379 35.3938C47.8669 35.7857 48.2169 36.3185 48.3958 36.9958H46.7253C46.5997 36.7332 46.4247 36.5354 46.1964 36.3984C45.9681 36.2614 45.7093 36.1929 45.4163 36.1929C44.9483 36.1929 44.5677 36.3565 44.2785 36.6838C43.9893 37.011 43.8409 37.4448 43.8409 37.9927C43.8409 38.5407 43.9855 38.9745 44.2785 39.3017C44.5677 39.629 44.9483 39.7926 45.4163 39.7926C45.7055 39.7926 45.9681 39.7241 46.1964 39.5871C46.4247 39.4501 46.5997 39.2523 46.7253 38.9897H48.3958C48.2169 39.667 47.8669 40.196 47.3379 40.5879C46.809 40.976 46.1773 41.1701 45.4353 41.1701C44.8303 41.1701 44.29 41.0369 43.8105 40.7668C43.3348 40.4966 42.9619 40.1237 42.6956 39.6404C42.4292 39.1571 42.296 38.613 42.296 37.9966C42.296 37.3801 42.4292 36.8284 42.6956 36.3451V36.3413Z" fill="#3C405B"/>
<path d="M50.2755 40.8809C49.8874 40.6716 49.583 40.3786 49.3585 39.9905C49.1378 39.6062 49.0236 39.1533 49.0236 38.6396C49.0236 38.1259 49.1378 37.6807 49.3623 37.2926C49.5868 36.9045 49.895 36.6077 50.287 36.3984C50.6789 36.1891 51.1165 36.0863 51.6036 36.0863C52.0906 36.0863 52.5282 36.1891 52.9202 36.3984C53.3121 36.6077 53.6203 36.9045 53.8448 37.2926C54.0694 37.6807 54.1835 38.1297 54.1835 38.6396C54.1835 39.1495 54.0694 39.5985 53.841 39.9867C53.6127 40.3748 53.3007 40.6716 52.9088 40.8809C52.513 41.0902 52.0754 41.1929 51.5884 41.1929C51.1013 41.1929 50.6637 41.0902 50.2755 40.8809ZM52.3304 39.5567C52.5359 39.3436 52.6386 39.0392 52.6386 38.6396C52.6386 38.2401 52.5397 37.9357 52.3418 37.7226C52.1439 37.5095 51.9004 37.4029 51.6074 37.4029C51.3144 37.4029 51.0632 37.5095 50.8692 37.7188C50.6751 37.9281 50.5762 38.2363 50.5762 38.6396C50.5762 39.043 50.6713 39.3436 50.8654 39.5567C51.0594 39.7698 51.2992 39.8763 51.5884 39.8763C51.8775 39.8763 52.1249 39.7698 52.3304 39.5567Z" fill="#3C405B"/>
<path d="M59.4119 36.6685C59.7582 37.0453 59.9332 37.5628 59.9332 38.2211V41.1206H58.4225V38.4266C58.4225 38.0955 58.335 37.8367 58.1638 37.6541C57.9925 37.4714 57.7604 37.3801 57.4712 37.3801C57.182 37.3801 56.9499 37.4714 56.7787 37.6541C56.6074 37.8367 56.5199 38.0955 56.5199 38.4266V41.1206H54.9978V36.1586H56.5199V36.817C56.6721 36.5962 56.8814 36.425 57.144 36.2956C57.4065 36.1701 57.6995 36.1054 58.023 36.1054C58.6052 36.1054 59.0694 36.2918 59.4157 36.6685H59.4119Z" fill="#3C405B"/>
<path d="M61.851 40.9684C61.5123 40.82 61.246 40.6184 61.0519 40.3596C60.8578 40.1008 60.7475 39.8117 60.7247 39.492H62.2277C62.2467 39.6632 62.3267 39.804 62.4674 39.9106C62.6082 40.0171 62.7833 40.0704 62.9926 40.0704C63.1828 40.0704 63.3274 40.0324 63.434 39.9601C63.5367 39.8878 63.59 39.7888 63.59 39.6709C63.59 39.5301 63.5177 39.4235 63.3693 39.355C63.2209 39.2865 62.9811 39.2104 62.6501 39.1267C62.2962 39.043 61.9994 38.9555 61.7597 38.8642C61.5199 38.7728 61.3183 38.6282 61.147 38.4266C60.9758 38.2287 60.8883 37.9585 60.8883 37.6198C60.8883 37.3345 60.9682 37.0757 61.1242 36.8398C61.2802 36.6039 61.5123 36.4212 61.8168 36.2842C62.1212 36.1472 62.4865 36.0787 62.905 36.0787C63.5291 36.0787 64.02 36.2309 64.3777 36.543C64.7353 36.8512 64.9408 37.2622 64.9941 37.7721H63.59C63.5672 37.6008 63.491 37.4638 63.3617 37.3611C63.2361 37.2622 63.0687 37.2089 62.8594 37.2089C62.6805 37.2089 62.5435 37.2431 62.4522 37.3116C62.3571 37.3801 62.3114 37.4714 62.3114 37.5932C62.3114 37.734 62.3875 37.8406 62.5397 37.9129C62.692 37.9852 62.9279 38.0536 63.2475 38.1259C63.6166 38.2211 63.9134 38.3124 64.1455 38.4075C64.3777 38.4989 64.5793 38.6473 64.7544 38.8527C64.9294 39.0582 65.0207 39.3322 65.0245 39.6747C65.0245 39.9639 64.9446 40.2264 64.781 40.4547C64.6174 40.683 64.3853 40.8619 64.077 40.9913C63.7726 41.1206 63.4187 41.1853 63.0154 41.1853C62.5816 41.1853 62.1973 41.113 61.8586 40.9646L61.851 40.9684Z" fill="#3C405B"/>
<path d="M70.8541 36.1586V41.1206H69.3321V40.4433C69.176 40.664 68.9706 40.8391 68.7042 40.9722C68.4416 41.1054 68.1486 41.1739 67.829 41.1739C67.4485 41.1739 67.1136 41.0902 66.8244 40.919C66.5352 40.7515 66.3069 40.5042 66.1471 40.1846C65.9873 39.8649 65.9074 39.4882 65.9074 39.0544V36.1548H67.418V38.8489C67.418 39.18 67.5056 39.4387 67.6768 39.6214C67.848 39.804 68.0801 39.8954 68.3693 39.8954C68.6585 39.8954 68.8983 39.804 69.0733 39.6214C69.2445 39.4387 69.3321 39.18 69.3321 38.8489V36.1548H70.8541V36.1586Z" fill="#3C405B"/>
<path d="M73.4683 34.5376V41.1206H71.9462V34.5376H73.4683Z" fill="#3C405B"/>
<path d="M77.3382 39.8307V41.1206H76.5658C76.014 41.1206 75.584 40.9875 75.2758 40.7173C74.9676 40.4471 74.8116 40.0057 74.8116 39.3969V37.422H74.2065V36.1586H74.8116V34.9486H76.3337V36.1586H77.3306V37.422H76.3337V39.4159C76.3337 39.5643 76.3679 39.6709 76.4402 39.7355C76.5125 39.8002 76.6305 39.8345 76.7941 39.8345H77.3382V39.8307Z" fill="#3C405B"/>
<path d="M79.1305 40.8809C78.7424 40.6716 78.4379 40.3786 78.2134 39.9905C77.9889 39.6023 77.8786 39.1533 77.8786 38.6396C77.8786 38.1259 77.9927 37.6807 78.2172 37.2926C78.4417 36.9045 78.75 36.6077 79.1419 36.3984C79.5338 36.1891 79.9714 36.0863 80.4585 36.0863C80.9456 36.0863 81.3832 36.1891 81.7751 36.3984C82.167 36.6077 82.4753 36.9045 82.6998 37.2926C82.9243 37.6807 83.0384 38.1297 83.0384 38.6396C83.0384 39.1495 82.9243 39.5985 82.696 39.9867C82.4677 40.3748 82.1556 40.6716 81.7637 40.8809C81.3679 41.0902 80.9303 41.1929 80.4433 41.1929C79.9562 41.1929 79.5186 41.0902 79.1305 40.8809ZM81.1853 39.5567C81.3908 39.3436 81.4935 39.0392 81.4935 38.6396C81.4935 38.2401 81.3946 37.9357 81.1967 37.7226C80.9988 37.5095 80.7553 37.4029 80.4623 37.4029C80.1693 37.4029 79.9182 37.5095 79.7241 37.7188C79.53 37.9281 79.4311 38.2363 79.4311 38.6396C79.4311 39.043 79.5262 39.3436 79.7203 39.5567C79.9144 39.7698 80.1541 39.8763 80.4433 39.8763C80.7325 39.8763 80.9798 39.7698 81.1853 39.5567Z" fill="#3C405B"/>
<path d="M86.037 36.3413C86.3034 36.1853 86.6002 36.1054 86.9274 36.1054V37.715H86.5088C86.1283 37.715 85.8429 37.7949 85.6565 37.9585C85.4662 38.1221 85.3711 38.4075 85.3711 38.8185V41.1206H83.849V36.1586H85.3711V36.9844C85.5499 36.7104 85.7706 36.4973 86.037 36.3413Z" fill="#3C405B"/>
<path d="M87.7645 35.4052C87.5971 35.2492 87.5096 35.0551 87.5096 34.823C87.5096 34.5909 87.5933 34.3892 87.7645 34.2332C87.932 34.0772 88.1527 33.9973 88.419 33.9973C88.6854 33.9973 88.8947 34.0772 89.0621 34.2332C89.2295 34.3892 89.3171 34.5871 89.3171 34.823C89.3171 35.0589 89.2333 35.2492 89.0621 35.4052C88.8947 35.5612 88.6778 35.6411 88.419 35.6411C88.1603 35.6411 87.9358 35.5612 87.7645 35.4052ZM89.1763 36.1586V41.1206H87.6542V36.1586H89.1763Z" fill="#3C405B"/>
<path d="M90.2645 37.2888C90.4586 36.9045 90.7212 36.6077 91.0522 36.3984C91.3833 36.1891 91.7562 36.0863 92.1633 36.0863C92.5134 36.0863 92.8216 36.1586 93.0842 36.2994C93.3468 36.4402 93.5522 36.6267 93.693 36.8588V36.1548H95.2151V41.1168H93.693V40.4129C93.5446 40.645 93.3391 40.8314 93.0766 40.9722C92.814 41.113 92.5058 41.1853 92.1557 41.1853C91.7524 41.1853 91.3833 41.0788 91.0522 40.8695C90.7212 40.6602 90.4586 40.3596 90.2645 39.9715C90.0705 39.5833 89.9753 39.1343 89.9753 38.6244C89.9753 38.1145 90.0705 37.6655 90.2645 37.2812V37.2888ZM93.3772 37.7416C93.1679 37.5209 92.9092 37.4144 92.6085 37.4144C92.3079 37.4144 92.0492 37.5209 91.8399 37.7378C91.6306 37.9547 91.5241 38.2515 91.5241 38.632C91.5241 39.0125 91.6306 39.3132 91.8399 39.5339C92.0492 39.7546 92.3079 39.8687 92.6085 39.8687C92.9092 39.8687 93.1679 39.7584 93.3772 39.5415C93.5865 39.3208 93.693 39.024 93.693 38.6434C93.693 38.2629 93.5865 37.9661 93.3772 37.7454V37.7416Z" fill="#3C405B"/>
<path d="M102.087 40.0171H99.7585L99.3856 41.1206H97.795L100.055 34.8763H101.817L104.077 41.1206H102.468L102.095 40.0171H102.087ZM101.699 38.8451L100.927 36.5582L100.162 38.8451H101.699Z" fill="#3C405B"/>
<path d="M104.743 37.2888C104.937 36.9045 105.2 36.6077 105.531 36.3984C105.862 36.1891 106.235 36.0863 106.642 36.0863C106.969 36.0863 107.266 36.1548 107.536 36.2918C107.807 36.4288 108.02 36.6115 108.172 36.8436V34.5414H109.694V41.1245H108.172V40.4129C108.031 40.6488 107.826 40.8391 107.563 40.9837C107.3 41.1244 106.992 41.1968 106.642 41.1968C106.235 41.1968 105.862 41.0902 105.531 40.8809C105.2 40.6716 104.937 40.371 104.743 39.9829C104.549 39.5948 104.454 39.1457 104.454 38.6358C104.454 38.1259 104.549 37.6769 104.743 37.2926V37.2888ZM107.856 37.7416C107.647 37.5209 107.388 37.4144 107.087 37.4144C106.787 37.4144 106.528 37.5209 106.319 37.7378C106.109 37.9547 106.003 38.2515 106.003 38.632C106.003 39.0126 106.109 39.3132 106.319 39.5339C106.528 39.7546 106.787 39.8687 107.087 39.8687C107.388 39.8687 107.647 39.7584 107.856 39.5415C108.065 39.3208 108.172 39.024 108.172 38.6434C108.172 38.2629 108.065 37.9661 107.856 37.7454V37.7416Z" fill="#3C405B"/>
<path d="M115.699 36.1586V41.1206H114.177V40.4433C114.021 40.664 113.815 40.8391 113.549 40.9722C113.286 41.1054 112.993 41.1739 112.673 41.1739C112.293 41.1739 111.958 41.0902 111.669 40.919C111.38 40.7515 111.151 40.5042 110.992 40.1846C110.832 39.8649 110.752 39.4882 110.752 39.0544V36.1548H112.263V38.8489C112.263 39.18 112.35 39.4387 112.521 39.6214C112.692 39.804 112.925 39.8954 113.214 39.8954C113.503 39.8954 113.743 39.804 113.918 39.6214C114.089 39.4387 114.177 39.18 114.177 38.8489V36.1548H115.699V36.1586Z" fill="#3C405B"/>
<path d="M116.779 37.2888C116.973 36.9045 117.236 36.6077 117.567 36.3984C117.898 36.1891 118.271 36.0863 118.678 36.0863C119.028 36.0863 119.336 36.1586 119.599 36.2994C119.862 36.4402 120.067 36.6267 120.208 36.8588V36.1548H121.73V41.1168H120.208V40.4129C120.059 40.645 119.854 40.8314 119.591 40.9722C119.329 41.113 119.021 41.1853 118.67 41.1853C118.267 41.1853 117.898 41.0788 117.567 40.8695C117.236 40.6602 116.973 40.3596 116.779 39.9715C116.585 39.5833 116.49 39.1343 116.49 38.6244C116.49 38.1145 116.585 37.6655 116.779 37.2812V37.2888ZM119.892 37.7416C119.683 37.5209 119.424 37.4144 119.123 37.4144C118.823 37.4144 118.564 37.5209 118.355 37.7378C118.145 37.9547 118.039 38.2515 118.039 38.632C118.039 39.0125 118.145 39.3132 118.355 39.5339C118.564 39.7546 118.823 39.8687 119.123 39.8687C119.424 39.8687 119.683 39.7584 119.892 39.5415C120.101 39.3208 120.208 39.024 120.208 38.6434C120.208 38.2629 120.101 37.9661 119.892 37.7454V37.7416Z" fill="#3C405B"/>
<path d="M127.247 36.6685C127.594 37.0453 127.769 37.5628 127.769 38.2211V41.1206H126.258V38.4266C126.258 38.0955 126.171 37.8367 125.999 37.6541C125.828 37.4714 125.596 37.3801 125.307 37.3801C125.018 37.3801 124.785 37.4714 124.614 37.6541C124.443 37.8367 124.355 38.0955 124.355 38.4266V41.1206H122.833V36.1586H124.355V36.817C124.508 36.5962 124.717 36.425 124.98 36.2956C125.242 36.1701 125.535 36.1054 125.859 36.1054C126.441 36.1054 126.905 36.2918 127.251 36.6685H127.247Z" fill="#3C405B"/>
<path d="M133.477 39.0049H130.033C130.056 39.3132 130.155 39.5491 130.33 39.7127C130.505 39.8763 130.718 39.9562 130.973 39.9562C131.353 39.9562 131.616 39.7964 131.764 39.4768H133.381C133.298 39.804 133.149 40.097 132.932 40.3558C132.716 40.6183 132.445 40.82 132.118 40.9684C131.791 41.1168 131.426 41.1891 131.026 41.1891C130.539 41.1891 130.105 41.0864 129.728 40.8771C129.348 40.6678 129.051 40.3748 128.838 39.9867C128.625 39.6024 128.518 39.1495 128.518 38.6358C128.518 38.1221 128.625 37.6693 128.834 37.285C129.044 36.9007 129.34 36.6038 129.721 36.3946C130.101 36.1853 130.535 36.0825 131.03 36.0825C131.525 36.0825 131.935 36.1815 132.312 36.3831C132.685 36.5848 132.978 36.874 133.187 37.2469C133.397 37.6198 133.503 38.0574 133.503 38.5559C133.503 38.6967 133.496 38.8451 133.477 39.0011V39.0049ZM131.947 38.1602C131.947 37.8976 131.859 37.6921 131.681 37.5361C131.502 37.3839 131.281 37.304 131.015 37.304C130.748 37.304 130.543 37.3763 130.372 37.5247C130.196 37.6731 130.09 37.8824 130.048 38.1564H131.951L131.947 38.1602Z" fill="#3C405B"/>
<path d="M134.416 35.4052C134.249 35.2492 134.162 35.0551 134.162 34.823C134.162 34.5909 134.245 34.3892 134.416 34.2332C134.584 34.0772 134.805 33.9973 135.071 33.9973C135.337 33.9973 135.547 34.0772 135.714 34.2332C135.881 34.3892 135.969 34.5871 135.969 34.823C135.969 35.0589 135.885 35.2492 135.714 35.4052C135.547 35.5612 135.33 35.6411 135.071 35.6411C134.812 35.6411 134.588 35.5612 134.416 35.4052ZM135.824 36.1586V41.1206H134.302V36.1586H135.824Z" fill="#3C405B"/>
<path d="M139.116 36.3413C139.382 36.1853 139.679 36.1054 140.006 36.1054V37.715H139.588C139.207 37.715 138.922 37.7949 138.735 37.9585C138.549 38.1221 138.45 38.4075 138.45 38.8185V41.1206H136.928V36.1586H138.45V36.9844C138.629 36.7104 138.85 36.4973 139.116 36.3413Z" fill="#3C405B"/>
<path d="M140.722 37.2888C140.916 36.9045 141.178 36.6077 141.509 36.3984C141.84 36.1891 142.213 36.0863 142.621 36.0863C142.971 36.0863 143.279 36.1586 143.541 36.2994C143.804 36.4402 144.009 36.6267 144.15 36.8588V36.1548H145.672V41.1168H144.15V40.4129C144.002 40.645 143.796 40.8314 143.534 40.9722C143.271 41.113 142.963 41.1853 142.613 41.1853C142.21 41.1853 141.84 41.0788 141.509 40.8695C141.178 40.6602 140.916 40.3596 140.722 39.9715C140.528 39.5833 140.433 39.1343 140.433 38.6244C140.433 38.1145 140.528 37.6655 140.722 37.2812V37.2888ZM143.834 37.7416C143.625 37.5209 143.366 37.4144 143.066 37.4144C142.765 37.4144 142.506 37.5209 142.297 37.7378C142.088 37.9547 141.981 38.2515 141.981 38.632C141.981 39.0125 142.088 39.3132 142.297 39.5339C142.506 39.7546 142.765 39.8687 143.066 39.8687C143.366 39.8687 143.625 39.7584 143.834 39.5415C144.044 39.3208 144.15 39.024 144.15 38.6434C144.15 38.2629 144.044 37.9661 143.834 37.7454V37.7416Z" fill="#3C405B"/>
<path d="M7.31086 41.2957C7.34511 41.3223 7.38316 41.3527 7.4174 41.3794C6.05133 41.0635 4.80322 40.4661 3.73015 39.5947C1.56118 37.8329 0.370148 35.1426 0.370148 32.0186C0.370148 31.8169 0.377758 31.619 0.385369 31.4173C0.385369 31.3679 0.381563 31.3222 0.370148 31.2765V17.7414C0.370148 15.0207 1.24535 12.1744 2.85115 9.64771C2.99955 13.7307 3.58555 17.6082 4.56349 21.246C5.36639 24.2445 6.43947 27.0832 7.74846 29.7354C7.86642 29.9752 7.98819 30.2149 8.11376 30.4546C8.07571 30.4889 8.03766 30.5269 8.00341 30.5612C6.26062 32.2583 5.25985 34.4995 5.25985 36.7028C5.25985 38.5825 5.99045 40.215 7.31847 41.2919L7.31086 41.2957Z" fill="#3C405B"/>
<path d="M14.3733 40.5651C14.3163 40.7516 14.145 40.957 13.9053 41.0103L12.2082 41.368C12.1549 41.3794 12.1016 41.3908 12.0484 41.3985C10.492 41.6838 9.04985 41.3642 7.96917 40.4852C6.8923 39.61 6.29488 38.2668 6.29488 36.7066C6.29488 34.9905 6.99884 33.2401 8.24695 31.8169C9.04224 33.2477 9.90983 34.629 10.8497 35.9494C11.9266 37.4639 13.0948 38.9022 14.3429 40.2531C14.4304 40.3482 14.3962 40.5042 14.3733 40.5689V40.5651Z" fill="#3C405B"/>
<path d="M30.4389 8.74968V14.0503C30.4389 18.0877 28.0645 22.2924 24.3848 24.762C23.0226 25.6753 21.5728 26.2993 20.0659 26.6152L12.2043 28.2704C10.667 28.5939 9.21344 29.3892 7.99577 30.5688C6.25298 32.2659 5.25221 34.5072 5.25221 36.7104C5.25221 38.5902 5.98281 40.2226 7.31083 41.2995C7.34508 41.3261 7.38313 41.3566 7.41737 41.3832C6.0513 41.0674 4.80319 40.47 3.73012 39.5986C1.56115 37.8368 0.370117 35.1465 0.370117 32.0224C0.370117 31.8207 0.377728 31.6228 0.385338 31.4212C0.385338 31.3717 0.381533 31.326 0.370117 31.2804V17.7452C0.370117 14.8076 1.39372 11.7178 3.25067 9.05029C5.70122 5.52286 9.31998 3.03805 13.1861 2.22374L20.2828 0.728289C23.0492 0.146091 25.6329 0.686434 27.5546 2.24657C29.4153 3.75724 30.4389 6.06701 30.4389 8.74968Z" fill="#3C405B"/>
<path d="M23.5515 36.3527C23.5515 34.6099 22.1398 33.4912 20.4008 33.8603C18.6618 34.2256 17.2501 35.9379 17.2501 37.6807C17.2501 39.4235 18.6618 40.5422 20.4008 40.1731C22.1398 39.8078 23.5515 38.0955 23.5515 36.3527Z" fill="#3C405B"/>
</svg>
