<svg width="203" height="64" viewBox="0 0 203 64" fill="none" xmlns="http://www.w3.org/2000/svg">
<path d="M18.2072 31.5691V16.7196C18.2072 16.3494 18.4172 16.1394 18.791 16.1394H20.8625C21.2362 16.1394 21.4426 16.3494 21.4426 16.7196V22.5533H30.9923V16.7196C30.9923 16.3494 31.2023 16.1394 31.5725 16.1394H33.6689C34.0391 16.1394 34.2491 16.3494 34.2491 16.7196V31.5691C34.2491 31.9393 34.0391 32.1493 33.6689 32.1493H31.5725C31.1987 32.1493 30.9923 31.9393 30.9923 31.5691V25.7496H21.4426V31.5691C21.4426 31.9393 21.2326 32.1493 20.8625 32.1493H18.791C18.4172 32.1493 18.2072 31.9393 18.2072 31.5691Z" fill="#3C405B"/>
<path d="M59.3672 31.7188L58.246 29.3839H48.6145L47.4684 31.7188C47.326 31.9894 47.0876 32.1495 46.753 32.1495H44.3469C43.8913 32.1495 43.7026 31.879 43.8913 31.4911L51.4726 16.5597C51.615 16.2892 51.8286 16.1539 52.1632 16.1539H54.6903C55.0248 16.1539 55.2384 16.2892 55.3808 16.5597L62.9408 31.4911C63.133 31.8755 62.9408 32.1495 62.4887 32.1495H60.0791C59.7481 32.1495 59.5096 32.0143 59.3672 31.7188ZM57.0074 26.8034L53.4552 19.4392L49.8532 26.8034H57.0074Z" fill="#3C405B"/>
<path d="M72.615 31.5907V16.7056C72.615 16.3425 72.8179 16.1397 73.1738 16.1397H75.1599C75.5194 16.1397 75.7187 16.3425 75.7187 16.7056V29.1383H84.8555C85.2115 29.1383 85.4143 29.3412 85.4143 29.7078V31.5907C85.4143 31.9537 85.2115 32.1566 84.8555 32.1566H73.1738C72.8143 32.1566 72.615 31.9502 72.615 31.5907Z" fill="#3C405B"/>
<path d="M95.0138 27.3445C94.9889 26.9601 95.2025 26.7536 95.5833 26.7536H97.6976C98.0784 26.7536 98.2671 26.9565 98.292 27.3195C98.4343 28.6365 99.0786 29.1348 100.62 29.1348H105.279C107.083 29.1348 107.728 28.7041 107.728 27.3872C107.728 26.1165 107.108 25.7784 105.517 25.6645L100.218 25.2801C96.5586 25.0095 95.1064 23.8741 95.1064 20.8772C95.1064 17.8126 96.6511 16.1362 100.787 16.1362H105.137C108.892 16.1362 110.579 17.7485 110.746 20.9448C110.771 21.3292 110.557 21.5356 110.177 21.5356H108.037C107.657 21.5356 107.464 21.3328 107.443 20.9697C107.301 19.6528 106.656 19.1545 105.137 19.1545H100.837C99.0074 19.1545 98.3667 19.5638 98.3667 20.9021C98.3667 22.1514 98.986 22.4682 100.577 22.5821L105.877 22.9665C109.49 23.237 111.009 24.44 111.009 27.4121C111.009 30.4767 109.465 32.1531 105.304 32.1531H100.623C96.8433 32.1567 95.1776 30.5443 95.0138 27.3445Z" fill="#3C405B"/>
<path d="M125.282 31.5907V19.3537H120.257C119.886 19.3537 119.676 19.1509 119.676 18.7878V16.7056C119.676 16.3425 119.886 16.1397 120.257 16.1397H133.547C133.917 16.1397 134.131 16.3425 134.131 16.7056V18.7878C134.131 19.1509 133.921 19.3537 133.547 19.3537H128.521V31.5907C128.521 31.9537 128.311 32.1566 127.938 32.1566H125.866C125.492 32.1566 125.282 31.9502 125.282 31.5907Z" fill="#3C405B"/>
<path d="M144.132 31.5907V16.7056C144.132 16.3425 144.342 16.1397 144.716 16.1397H157.448C157.822 16.1397 158.032 16.3425 158.032 16.7056V18.7842C158.032 19.1473 157.822 19.3537 157.448 19.3537H147.347V22.6497H153.889C154.259 22.6497 154.469 22.8525 154.469 23.2191V24.8742C154.469 25.2373 154.259 25.4437 153.889 25.4437H147.347V29.1419H157.448C157.822 29.1419 158.032 29.3447 158.032 29.7114V31.5942C158.032 31.9573 157.822 32.1602 157.448 32.1602H144.716C144.342 32.1566 144.132 31.9502 144.132 31.5907Z" fill="#3C405B"/>
<path d="M168.496 31.5907V16.7056C168.496 16.3425 168.713 16.1397 169.094 16.1397H171.247C171.557 16.1397 171.796 16.2536 171.988 16.4814L181.267 27.4156V16.7056C181.267 16.3425 181.484 16.1397 181.865 16.1397H183.993C184.374 16.1397 184.591 16.3425 184.591 16.7056V31.5907C184.591 31.9537 184.378 32.1566 183.993 32.1566H181.84C181.527 32.1566 181.292 32.0427 181.096 31.8149L171.817 20.9483V31.5907C171.817 31.9537 171.603 32.1566 171.219 32.1566H169.09C168.713 32.1566 168.496 31.9502 168.496 31.5907Z" fill="#3C405B"/>
<path d="M72.6969 47.9672V42.0089C72.6969 41.8914 72.7609 41.8309 72.8784 41.8309H73.4016C73.5191 41.8309 73.5831 41.895 73.5831 42.0089V47.9672C73.5831 48.0846 73.5191 48.1451 73.4016 48.1451H72.8784C72.7574 48.1451 72.6969 48.0846 72.6969 47.9672Z" fill="#3C405B"/>
<path d="M76.7403 47.9672V42.0089C76.7403 41.8914 76.8043 41.8309 76.9218 41.8309H77.4877C77.5767 41.8309 77.6586 41.8665 77.712 41.9377L81.8123 46.8673V42.0089C81.8123 41.8914 81.8764 41.8309 81.9938 41.8309H82.5171C82.6345 41.8309 82.6986 41.895 82.6986 42.0089V47.9672C82.6986 48.0846 82.6345 48.1451 82.5171 48.1451H81.9298C81.8408 48.1451 81.7589 48.1095 81.7055 48.0383L77.623 43.1372V47.9672C77.623 48.0846 77.5589 48.1451 77.4415 48.1451H76.9182C76.8043 48.1451 76.7403 48.0846 76.7403 47.9672Z" fill="#3C405B"/>
<path d="M85.7418 45.9739V44.0163C85.7418 42.621 86.3291 41.8344 87.8774 41.8344H89.8884C91.4367 41.8344 92.024 42.621 92.024 44.0163V44.0874C92.024 44.2049 91.9599 44.2654 91.8425 44.2654H91.3193C91.2018 44.2654 91.1377 44.212 91.1377 44.123V43.9878C91.1377 42.9698 90.796 42.6815 89.8848 42.6815H87.8738C86.9626 42.6815 86.6209 42.9663 86.6209 43.9878V46.0024C86.6209 47.0132 86.9733 47.298 87.8738 47.298H89.8848C90.7854 47.298 91.1377 47.0132 91.1377 46.0024V45.8066C91.1377 45.6891 91.2018 45.6286 91.3193 45.6286H91.8425C91.9599 45.6286 92.024 45.6927 92.024 45.7995V45.9774C92.024 47.3656 91.4367 48.1522 89.8884 48.1522H87.8774C86.3291 48.1451 85.7418 47.3585 85.7418 45.9739Z" fill="#3C405B"/>
<path d="M94.8608 45.9739V44.0163C94.8608 42.621 95.4481 41.8344 96.9964 41.8344H99.2565C100.805 41.8344 101.392 42.621 101.392 44.0163V45.9739C101.392 47.362 100.805 48.1486 99.2565 48.1486H96.9964C95.4445 48.1451 94.8608 47.3585 94.8608 45.9739ZM99.2565 47.298C100.168 47.298 100.509 47.0132 100.509 46.0024V43.9878C100.509 42.9698 100.175 42.6815 99.2565 42.6815H96.9964C96.0852 42.6815 95.7435 42.9663 95.7435 43.9878V46.0024C95.7435 47.0132 96.0959 47.298 96.9964 47.298H99.2565Z" fill="#3C405B"/>
<path d="M108.963 46.1804L110.198 47.9351C110.28 48.0526 110.226 48.1487 110.08 48.1487H109.458C109.369 48.1487 109.294 48.1131 109.24 48.0312L108.034 46.2694H105.322V47.9672C105.322 48.0846 105.258 48.1451 105.14 48.1451H104.617C104.499 48.1451 104.435 48.0811 104.435 47.9672V42.0089C104.435 41.8914 104.499 41.8309 104.617 41.8309H107.877C109.771 41.8309 110.401 42.5214 110.401 44.0128V44.1195C110.404 45.2656 110.041 45.9561 108.963 46.1804ZM109.511 44.0234C109.511 42.9236 109.098 42.6816 107.827 42.6816H105.322V45.4294H107.827C109.087 45.4294 109.511 45.198 109.511 44.116V44.0234Z" fill="#3C405B"/>
<path d="M113.376 47.9672V42.0089C113.376 41.8914 113.44 41.8309 113.558 41.8309H116.818C118.712 41.8309 119.296 42.5214 119.296 43.9772V44.1195C119.296 45.4792 118.708 46.2302 116.818 46.2302H114.259V47.9672C114.259 48.0846 114.195 48.1451 114.078 48.1451H113.554C113.44 48.1451 113.376 48.0846 113.376 47.9672ZM116.765 45.3902C118.007 45.3902 118.413 45.0663 118.413 44.1124V43.9772C118.413 42.92 118.007 42.6816 116.765 42.6816H114.259V45.3938H116.765V45.3902Z" fill="#3C405B"/>
<path d="M122.154 45.9739V44.0163C122.154 42.621 122.741 41.8344 124.289 41.8344H126.549C128.098 41.8344 128.685 42.621 128.685 44.0163V45.9739C128.685 47.362 128.101 48.1486 126.549 48.1486H124.289C122.737 48.1451 122.154 47.3585 122.154 45.9739ZM126.549 47.298C127.461 47.298 127.802 47.0132 127.802 46.0024V43.9878C127.802 42.9698 127.468 42.6815 126.549 42.6815H124.289C123.378 42.6815 123.036 42.9663 123.036 43.9878V46.0024C123.036 47.0132 123.389 47.298 124.289 47.298H126.549Z" fill="#3C405B"/>
<path d="M136.252 46.1804L137.487 47.9351C137.569 48.0526 137.516 48.1487 137.37 48.1487H136.747C136.658 48.1487 136.583 48.1131 136.53 48.0312L135.323 46.2694H132.611V47.9672C132.611 48.0846 132.547 48.1451 132.429 48.1451H131.906C131.789 48.1451 131.725 48.0811 131.725 47.9672V42.0089C131.725 41.8914 131.789 41.8309 131.906 41.8309H135.167C137.06 41.8309 137.69 42.5214 137.69 44.0128V44.1195C137.694 45.2656 137.334 45.9561 136.252 46.1804ZM136.804 44.0234C136.804 42.9236 136.391 42.6816 135.12 42.6816H132.615V45.4294H135.12C136.38 45.4294 136.804 45.198 136.804 44.116V44.0234Z" fill="#3C405B"/>
<path d="M146.464 48.0134L145.923 46.9491H141.705L141.157 48.0241C141.111 48.113 141.05 48.1486 140.95 48.1486H140.345C140.21 48.1486 140.146 48.0596 140.21 47.9351L143.292 41.959C143.339 41.87 143.399 41.8344 143.499 41.8344H144.129C144.229 41.8344 144.293 41.87 144.335 41.959L147.407 47.9351C147.471 48.0596 147.407 48.1486 147.272 48.1486H146.667C146.571 48.1451 146.507 48.1024 146.464 48.0134ZM145.542 46.1981L143.823 42.7812L142.082 46.1981H145.542Z" fill="#3C405B"/>
<path d="M150.112 47.9672V42.0089C150.112 41.8914 150.176 41.8309 150.294 41.8309H154.177C155.718 41.8309 156.302 42.5641 156.302 44.2014V45.8102C156.302 47.4368 155.714 48.1451 154.177 48.1451H150.294C150.176 48.1451 150.112 48.0846 150.112 47.9672ZM154.095 47.3051C155.067 47.3051 155.43 47.0097 155.43 45.8031V44.2014C155.43 42.9948 155.077 42.6816 154.095 42.6816H150.995V47.3051H154.095Z" fill="#3C405B"/>
<path d="M159.231 45.9739V44.0163C159.231 42.621 159.818 41.8344 161.367 41.8344H163.627C165.175 41.8344 165.762 42.621 165.762 44.0163V45.9739C165.762 47.362 165.179 48.1486 163.627 48.1486H161.367C159.815 48.1451 159.231 47.3585 159.231 45.9739ZM163.627 47.298C164.538 47.298 164.88 47.0132 164.88 46.0024V43.9878C164.88 42.9698 164.545 42.6815 163.627 42.6815H161.367C160.456 42.6815 160.114 42.9663 160.114 43.9878V46.0024C160.114 47.0132 160.466 47.298 161.367 47.298H163.627Z" fill="#3C405B"/>
<path d="M173.33 46.1804L174.565 47.9351C174.647 48.0526 174.593 48.1487 174.447 48.1487H173.824C173.735 48.1487 173.661 48.1131 173.607 48.0312L172.401 46.2694H169.688V47.9672C169.688 48.0846 169.624 48.1451 169.507 48.1451H168.984C168.866 48.1451 168.802 48.0811 168.802 47.9672V42.0089C168.802 41.8914 168.866 41.8309 168.984 41.8309H172.244C174.138 41.8309 174.768 42.5214 174.768 44.0128V44.1195C174.771 45.2656 174.412 45.9561 173.33 46.1804ZM173.881 44.0234C173.881 42.9236 173.468 42.6816 172.198 42.6816H169.692V45.4294H172.198C173.458 45.4294 173.881 45.198 173.881 44.116V44.0234Z" fill="#3C405B"/>
<path d="M183.541 48.0134L183 46.9491H178.782L178.234 48.0241C178.188 48.113 178.128 48.1486 178.028 48.1486H177.423C177.288 48.1486 177.224 48.0596 177.288 47.9351L180.37 41.959C180.416 41.87 180.477 41.8344 180.576 41.8344H181.206C181.306 41.8344 181.37 41.87 181.413 41.959L184.485 47.9351C184.549 48.0596 184.485 48.1486 184.349 48.1486H183.744C183.648 48.1451 183.584 48.1024 183.541 48.0134ZM182.619 46.1981L180.9 42.7812L179.16 46.1981H182.619Z" fill="#3C405B"/>
</svg>
