<svg width="125" height="66" viewBox="0 0 125 66" fill="none" xmlns="http://www.w3.org/2000/svg">
<path d="M36.1607 10.3812V10.0452C36.6666 9.9999 36.6854 9.95086 36.693 9.48267L36.7194 7.09276C36.2739 8.12352 35.6698 9.562 35.3375 10.385H35.0317C34.8052 9.7659 34.1935 8.18771 33.7443 7.13809C33.6952 8.51619 33.6801 9.36562 33.6876 9.55819C33.699 9.92067 33.7632 10.0075 34.2615 10.0452V10.3812H32.555V10.0452C32.9476 10.0189 33.1289 9.96971 33.1742 9.53933C33.2119 9.18819 33.2686 8.17638 33.3101 7.30048C33.3403 6.71143 33.3026 6.70009 32.7362 6.65486V6.31876H34.3069L35.4999 8.90886L36.6816 6.31876H38.1956V6.65486C37.652 6.70009 37.6218 6.74162 37.6255 7.1041L37.652 9.48267C37.6595 9.95086 37.7162 10.0037 38.2712 10.0452V10.3812H36.1607ZM46.0828 6.22438C47.34 6.22438 48.2612 7.09276 48.2612 8.29343C48.2612 9.64505 47.2494 10.4832 46.0111 10.4832C44.7915 10.4832 43.7948 9.63752 43.7948 8.33114C43.7911 7.26648 44.6481 6.22438 46.0828 6.22438ZM45.962 6.60952C45.2786 6.60952 44.8671 7.23629 44.8671 8.23676C44.8671 9.24486 45.2861 10.0868 46.1318 10.0868C46.7624 10.0868 47.1891 9.54314 47.1891 8.45571C47.1891 7.29286 46.7209 6.60952 45.962 6.60952ZM58.0891 10.4341C58.0626 10.4341 57.9267 10.4266 57.8512 10.4228C56.9866 10.3662 56.7865 10.185 56.5486 9.83381C56.3485 9.53933 56.1786 9.21467 55.9973 8.90886C55.9105 8.75781 55.7897 8.70867 55.5972 8.70867H55.4272V9.49029C55.4272 9.966 55.4574 10.0037 55.9823 10.0452V10.3812H53.9321V10.0452C54.4343 10.0189 54.4947 9.96219 54.4947 9.49029V7.20229C54.4947 6.74543 54.4381 6.67743 53.9321 6.65857V6.32257H55.8464C56.4731 6.32257 56.8355 6.38676 57.096 6.55286C57.3603 6.72657 57.5415 6.99838 57.5415 7.37971C57.5415 7.95362 57.0923 8.28209 56.7147 8.418C56.8167 8.59171 57.0696 8.99943 57.2659 9.28638C57.4963 9.63752 57.5869 9.75076 57.7114 9.87533C57.8473 10.0189 57.9795 10.0944 58.1418 10.1321L58.0891 10.4341ZM55.6689 8.33114C55.971 8.33114 56.1446 8.29343 56.2768 8.19905C56.4882 8.04419 56.5901 7.83657 56.5901 7.49295C56.5901 6.88514 56.2012 6.68505 55.8388 6.68505C55.6312 6.68505 55.5368 6.71524 55.5066 6.76057C55.4574 6.80581 55.4311 6.92286 55.4311 7.04743V8.33114H55.6689ZM65.7873 10.3812V10.0452C66.1083 9.9999 66.1611 9.97733 66.0894 9.75829C66.0328 9.596 65.9459 9.36943 65.8704 9.17686H64.5641C64.5263 9.29019 64.4471 9.50162 64.3829 9.7281C64.3187 9.93952 64.4017 10.0302 64.885 10.049V10.385H63.1897V10.049C63.6768 9.9999 63.7259 9.98486 63.9411 9.47514L65.255 6.33009L65.7231 6.24324C66.1423 7.32686 66.5538 8.35762 66.9804 9.40714C67.1881 9.92819 67.256 9.9999 67.7355 10.0528V10.3889H65.7873V10.3812ZM65.2324 7.37219C65.0625 7.81771 64.8586 8.32362 64.7 8.77286H65.7458L65.2324 7.37219ZM75.1281 6.31505C76.0719 6.31505 76.5363 6.48495 76.9441 6.82095C77.2801 7.10409 77.5369 7.59114 77.5369 8.16505C77.5369 8.91638 77.2311 9.50533 76.71 9.87914C76.223 10.2303 75.6792 10.3812 74.8411 10.3812H73.0892V10.0452C73.5914 10.0189 73.6443 9.96219 73.6443 9.49029V7.21362C73.6443 6.7379 73.5801 6.67743 73.0892 6.65857V6.32257H75.1281V6.31505ZM74.5994 9.39962C74.5994 9.78095 74.7241 9.99238 75.23 9.99238C76.1134 9.99238 76.4684 9.38457 76.4684 8.34628C76.4684 7.75724 76.3173 7.28914 76.0417 7.03238C75.7548 6.75676 75.4792 6.68876 75.0903 6.68876C74.8713 6.68876 74.7165 6.7379 74.6788 6.78314C74.6108 6.86628 74.5957 6.938 74.5957 7.09657V9.39962H74.5994ZM85.3258 10.3812V10.0452C85.6467 9.9999 85.6996 9.97733 85.6278 9.75829C85.5712 9.596 85.4844 9.36943 85.4089 9.17686H84.1025C84.0648 9.29019 83.9854 9.50162 83.9213 9.7281C83.8572 9.93952 83.9402 10.0302 84.4234 10.049V10.385H82.7282V10.049C83.2152 9.9999 83.2644 9.98486 83.4795 9.47514L84.7934 6.33009L85.2616 6.24324C85.6807 7.32686 86.0922 8.35762 86.5189 9.40714C86.7265 9.92819 86.7945 9.9999 87.274 10.0528V10.3889H85.3258V10.3812ZM84.7708 7.37219C84.6009 7.81771 84.397 8.32362 84.2384 8.77286H85.2843L84.7708 7.37219Z" fill="#3C405B"/>
<path d="M68.0676 24.8643C69.3665 24.8643 70.4538 23.826 70.4538 22.531C70.4538 21.2322 69.3665 20.1977 68.0676 20.1977C66.8217 20.1977 65.7344 21.236 65.7344 22.531C65.7306 23.826 66.8217 24.8643 68.0676 24.8643Z" fill="#3C405B"/>
<path d="M70.1932 42.8661V26.9144C70.1932 26.484 69.74 26.2008 69.355 26.3933C68.5243 26.8087 67.135 27.4203 65.4209 27.7903C65.0319 27.8733 64.8507 28.3189 65.0584 28.6625C65.2698 29.0098 65.4435 29.4629 65.5795 29.999C65.8399 31.0372 65.9948 32.3851 65.9948 33.8878V42.8623C65.9948 44.9766 65.7116 46.8304 65.1188 47.929C64.9112 48.3142 65.1981 48.7786 65.6323 48.7786H70.5443C70.9822 48.7786 71.2617 48.3142 71.0578 47.929C70.4725 46.8379 70.1932 44.9652 70.1932 42.8661Z" fill="#3C405B"/>
<path d="M87.2586 37.0555L80.5155 34.0992C78.7523 33.3215 77.6121 32.4909 77.6121 30.52C77.6121 28.2358 79.5301 26.5255 82.2296 26.4727C84.5553 26.4727 86.5904 27.307 87.5078 29.5347C87.6626 29.9084 88.1496 30.0104 88.4442 29.731L89.5806 28.6473C89.8562 28.383 89.8109 27.9263 89.4824 27.7299C87.4663 26.5444 85.0084 25.9554 82.3353 25.9554C75.2789 25.9554 73.4137 30.1576 73.4137 32.1284C73.4137 34.205 74.6596 36.2777 76.993 37.2631L84.3062 40.4799C86.0693 41.2577 87.4701 42.3979 87.4701 44.112C87.4701 46.551 85.3935 48.469 82.4373 48.5218C79.8473 48.5218 77.0043 47.3703 76.1888 44.482C76.0717 44.0705 75.5733 43.9157 75.2524 44.195L73.8743 45.3844C73.6025 45.6185 73.6025 46.0489 73.8856 46.2754C76.117 48.065 79.0732 49.0429 82.3353 49.0429C85.1368 49.0429 91.1021 47.6421 91.1021 42.5603C91.0984 40.3251 89.7995 38.1429 87.2586 37.0555Z" fill="#3C405B"/>
<path d="M105.94 37.0555L99.1968 34.0992C97.4339 33.3215 96.293 32.4909 96.293 30.52C96.293 28.2358 98.2111 26.5255 100.911 26.4727C103.237 26.4727 105.271 27.307 106.189 29.5347C106.343 29.9084 106.831 30.0104 107.122 29.731L108.258 28.6473C108.534 28.383 108.488 27.9263 108.16 27.7299C106.143 26.5444 103.685 25.9554 101.013 25.9554C93.9562 25.9554 92.0911 30.1576 92.0911 32.1284C92.0911 34.205 93.337 36.2777 95.6703 37.2631L102.983 40.4799C104.746 41.2577 106.147 42.3979 106.147 44.112C106.147 46.551 104.071 48.469 101.115 48.5218C98.5244 48.5218 95.6816 47.3703 94.8661 44.482C94.7491 44.0705 94.2507 43.9157 93.9298 44.195L92.5517 45.3844C92.2798 45.6185 92.2798 46.0489 92.5631 46.2754C94.7944 48.065 97.7473 49.0429 101.013 49.0429C103.814 49.0429 109.78 47.6421 109.78 42.5603C109.78 40.3251 108.481 38.1429 105.94 37.0555Z" fill="#3C405B"/>
<path d="M51.8134 25.8232C45.6404 25.8232 40.6075 30.0254 40.6075 37.1839C40.6075 44.6557 45.6404 48.907 51.8134 48.907C58.5263 48.907 60.9917 45.1767 61.8148 43.4626C61.9998 43.0775 61.7204 42.6282 61.2937 42.6282H59.1719C58.8548 42.6282 58.5942 42.885 58.5905 43.2021C58.5829 44.6594 57.9675 48.3784 51.8662 48.3784C43.9867 48.3784 45.1759 37.2291 45.1759 37.2291H62.4717C62.804 37.2291 63.072 36.946 63.0532 36.6138C62.6718 29.931 57.8052 25.8232 51.8134 25.8232ZM45.1722 36.0097C45.3798 29.731 47.8679 26.3443 51.8624 26.3443C55.8041 26.3443 58.3451 29.527 58.5527 36.0097H45.1722Z" fill="#3C405B"/>
<path d="M52.4178 54.9101C33.6836 54.1474 39.6074 36.6629 23.55 36.3834L31.6411 35.2923C36.2056 34.7147 39.5659 30.6559 39.3695 26.0573C39.1619 21.2851 35.2202 17.6001 29.1001 17.6001C29.1001 17.6001 25.6681 17.5774 24.5241 17.6001C23.1838 17.6266 20.7334 17.736 19.2988 18.3174C14.1791 20.4809 14.4283 26.5255 18.925 29.2364C22.153 31.2865 27.9372 30.2444 27.303 29.7008C23.7879 26.6992 25.1207 26.2311 22.7194 24.2262C21.0469 22.8331 19.1364 22.7726 17.8641 22.9538C18.2453 25.8912 23.5651 28.3944 23.5651 28.3944C19.4875 26.9106 17.4601 25.1436 17.1051 23.0293C16.1047 17.0527 24.762 18.1363 26.563 18.1665C30.6594 18.2344 36.0357 20.6054 36.0357 27.0352C36.0357 30.6672 32.8001 34.0804 27.352 35.0922C25.8153 35.3791 21.7869 35.7983 19.9217 36.0021C19.5592 36.0399 19.1553 36.0965 18.7287 36.206C16.9127 36.6817 15.6667 38.3581 15.6667 40.2345V42.8585C15.6667 44.9539 15.4137 46.8266 14.8285 47.9177C14.6209 48.3029 14.9003 48.7711 15.3382 48.7711H20.2125C20.6467 48.7711 20.926 48.3104 20.7259 47.9253C19.5706 45.8638 19.9897 40.0571 19.9179 37.3802C22.021 37.1461 29.572 36.7346 32.2073 42.4923C38.1463 55.4651 42.7827 59.9315 50.7642 59.9315C56.1028 59.9315 61.8718 55.7331 62.4381 52.5617C62.6987 51.1081 58.1945 55.1215 52.4178 54.9101Z" fill="#3C405B"/>
</svg>
