<svg width="176" height="36" viewBox="0 0 176 36" fill="none" xmlns="http://www.w3.org/2000/svg">
<g clip-path="url(#clip0_65_268)">
<path d="M33.235 0.302902H0.205994V4.62516H33.235V0.302902Z" fill="#3C405B"/>
<path d="M33.235 19.1766H0.205994V23.4989H33.235V19.1766Z" fill="#3C405B"/>
<path d="M31.5196 5.71066H1.92142V10.0329H31.5196V5.71066Z" fill="#3C405B"/>
<path d="M1.92142 11.1184V18.0911H7.85214V16.2885H25.5889V18.0911H31.5196V11.1184H1.92142Z" fill="#3C405B"/>
<path d="M46.7723 5.47297L43.5633 0.39006H36.5431L39.7521 5.47297L51.0193 23.4117L53.3606 15.9518L46.7723 5.47297Z" fill="#3C405B"/>
<path d="M72.3414 0.39006H65.3251L62.1161 5.47297L54.4422 17.6751L51.0193 23.4117L51.1302 23.586H57.7542L69.1324 5.47297L72.3414 0.39006Z" fill="#3C405B"/>
<path d="M84.6624 0.56041L82.325 8.02037L88.9133 18.4992L92.1223 23.586H99.1386L95.9296 18.4992L84.6624 0.56041Z" fill="#3C405B"/>
<path d="M77.9274 0.39006L66.5493 18.4992L63.3403 23.586H70.3605L73.5695 18.4992L81.2394 6.29701L84.6624 0.560415L84.5515 0.39006H77.9274Z" fill="#3C405B"/>
<path d="M160.312 0.56041L157.974 8.02037L164.563 18.4992L167.772 23.586H174.788L171.579 18.4992L160.312 0.56041Z" fill="#3C405B"/>
<path d="M153.577 0.39006L142.199 18.4992L138.99 23.586H146.01L149.219 18.4992L156.889 6.29701L160.312 0.560415L160.201 0.39006H153.577Z" fill="#3C405B"/>
<path d="M130.349 5.51655L133.214 0.39006H128.15L119.066 6.05535L109.982 0.39006H101.516V23.586H107.783V5.44524L113.952 9.26832L119.066 12.4813L124.181 9.26832L130.349 5.44524V5.51655Z" fill="#3C405B"/>
<path d="M130.349 10.4767V23.586H136.617V0.39006H133.439L130.349 10.4767Z" fill="#3C405B"/>
<path d="M53.4122 35.5188H51.8037V27.7023H53.4122V35.5188Z" fill="#3C405B"/>
<path d="M64.1049 27.7023L66.5651 33.7717H66.6444L66.577 30.4399V27.7063H68.1142V35.5228H65.8996L63.3799 29.3464H63.3007L63.368 32.7852V35.5268H61.8269V27.7102H64.1089L64.1049 27.7023Z" fill="#3C405B"/>
<path d="M76.521 35.5188V27.7023H78.1057V35.5188H76.521ZM77.6422 35.5188V34.1718H79.417C79.9756 34.1718 80.3956 34.0213 80.6729 33.7162C80.9502 33.4112 81.0929 32.9754 81.0929 32.4089V30.7885C81.0929 30.222 80.9542 29.7862 80.6729 29.4851C80.3916 29.184 79.9756 29.0335 79.417 29.0335H77.6382V27.6983H79.4725C80.5501 27.6983 81.3583 27.9638 81.9011 28.4947C82.4438 29.0255 82.7132 29.7862 82.7132 30.7806V32.4128C82.7132 33.4112 82.4438 34.1798 81.9011 34.7146C81.3623 35.2494 80.5501 35.5149 79.4685 35.5149H77.6382L77.6422 35.5188Z" fill="#3C405B"/>
<path d="M93.9289 35.6971C92.8513 35.6971 92.059 35.4317 91.5479 34.9048C91.0368 34.3778 90.7833 33.6053 90.7833 32.5911V27.7023H92.3917V32.6268C92.3917 33.1854 92.5146 33.6093 92.7562 33.9024C92.9979 34.1956 93.3901 34.3382 93.9289 34.3382C94.4677 34.3382 94.852 34.1916 95.0936 33.9024C95.3353 33.6093 95.4581 33.1854 95.4581 32.6268V27.7023H97.0666V32.5911C97.0666 33.6053 96.813 34.3778 96.302 34.9048C95.7909 35.4317 95.0025 35.6971 93.9289 35.6971Z" fill="#3C405B"/>
<path d="M107.759 35.6773C107.395 35.6773 107.058 35.6495 106.741 35.598C106.424 35.5465 106.139 35.4792 105.885 35.4C105.632 35.3207 105.41 35.2415 105.228 35.1583L105.085 33.6409C105.402 33.8073 105.778 33.9579 106.218 34.0886C106.654 34.2194 107.118 34.2867 107.613 34.2867C108.136 34.2867 108.512 34.2114 108.746 34.0609C108.98 33.9103 109.094 33.6766 109.094 33.3636V33.2963C109.094 33.0942 109.043 32.9239 108.944 32.7931C108.845 32.6624 108.678 32.5435 108.445 32.4405C108.211 32.3375 107.898 32.2345 107.498 32.1276C106.935 31.973 106.472 31.7948 106.111 31.6006C105.751 31.4026 105.485 31.1569 105.315 30.8598C105.145 30.5627 105.057 30.1903 105.057 29.7426V29.6713C105.057 28.9859 105.287 28.459 105.751 28.0945C106.214 27.7261 106.896 27.5438 107.803 27.5438C108.365 27.5438 108.849 27.5953 109.253 27.6983C109.657 27.8013 109.994 27.9202 110.267 28.0549L110.41 29.4692C110.105 29.3068 109.752 29.1721 109.36 29.0612C108.968 28.9502 108.536 28.8987 108.072 28.8987C107.724 28.8987 107.45 28.9304 107.248 28.9978C107.046 29.0612 106.9 29.1602 106.812 29.287C106.725 29.4138 106.682 29.5683 106.682 29.7465V29.7664C106.682 29.9486 106.729 30.1071 106.82 30.2418C106.912 30.3765 107.078 30.4993 107.312 30.6102C107.545 30.7211 107.886 30.836 108.322 30.9549C108.877 31.1094 109.328 31.2758 109.681 31.458C110.033 31.6363 110.295 31.87 110.465 32.1553C110.636 32.4405 110.723 32.8169 110.723 33.2883V33.3993C110.723 34.152 110.477 34.7225 109.986 35.1107C109.495 35.499 108.75 35.6892 107.755 35.6892L107.759 35.6773Z" fill="#3C405B"/>
<path d="M118.103 29.0414V27.7023H124.153V29.0414H118.103ZM120.33 35.5188V27.9994H121.938V35.5188H120.33Z" fill="#3C405B"/>
<path d="M132.124 35.5188V27.7023H133.689V31.9453L133.701 32.5396V35.5188H132.124ZM136.569 35.5188L136.391 33.9975C136.363 33.7242 136.304 33.4944 136.22 33.3121C136.133 33.1299 136.007 32.9873 135.836 32.8922C135.666 32.7971 135.428 32.7496 135.127 32.7496L133.237 32.7416V31.5056L135.226 31.4977C135.67 31.4977 135.991 31.3947 136.185 31.1886C136.379 30.9826 136.474 30.6895 136.474 30.3052V30.1586C136.474 29.7783 136.375 29.493 136.185 29.2949C135.991 29.0968 135.67 28.9978 135.214 28.9978H133.221V27.7023H135.44C136.359 27.7023 137.029 27.8885 137.449 28.257C137.869 28.6294 138.082 29.1563 138.082 29.8417V30.012C138.082 30.527 137.96 30.9351 137.71 31.2362C137.46 31.5373 137.064 31.7156 136.522 31.775V31.9968L136.074 31.775C136.537 31.8067 136.898 31.9057 137.155 32.0682C137.409 32.2306 137.595 32.4564 137.714 32.7456C137.833 33.0348 137.924 33.3874 137.983 33.8113L138.221 35.5188H136.569Z" fill="#3C405B"/>
<path d="M147.86 35.5188H146.252V27.7023H147.86V35.5188Z" fill="#3C405B"/>
<path d="M155.688 35.5188L157.994 27.7023H160.435L162.732 35.5188H161.112L159.29 28.7601H159.143L157.309 35.5188H155.688ZM157.44 33.5261V32.2464H160.973V33.5261H157.44Z" fill="#3C405B"/>
<path d="M172.173 35.5188H170.557V27.7023H172.173V35.5188ZM171.464 34.1679H175.557V35.5188H171.464V34.1679Z" fill="#3C405B"/>
</g>
<defs>
<clipPath id="clip0_65_268">
<rect width="175.351" height="35.3942" fill="white" transform="translate(0.205994 0.302902)"/>
</clipPath>
</defs>
</svg>
